<?xml version="1.0" encoding="utf-8"?>
<!-- Generator: Adobe Illustrator 23.0.2, SVG Export Plug-In . SVG Version: 6.00 Build 0)  -->
<svg version="1.1" id="zoom-plus" xmlns="http://www.w3.org/2000/svg" xmlns:xlink="http://www.w3.org/1999/xlink" x="0px" y="0px"
	 viewBox="0 0 24 24" width="25px" height="25px" style="enable-background:new 0 0 24 24;" xml:space="preserve">
<style type="text/css">
	.st0{fill:url(#SVGID_1_);}
	.st1{fill:#FFFFFF;}
</style>
<linearGradient id="SVGID_1_" gradientUnits="userSpaceOnUse" x1="-232.899" y1="560.1996" x2="-213.101" y2="579.9976" gradientTransform="matrix(1 0 0 -1 235 582.0986)">
	<stop  offset="0" style="stop-color:#FFD500"/>
	<stop  offset="0.486" style="stop-color:#FF1992"/>
	<stop  offset="0.751" style="stop-color:#F30B7D"/>
	<stop  offset="1" style="stop-color:#9D00AA"/>
</linearGradient>
<path class="st0" d="M12,24c6.63,0,12-5.37,12-12S18.63,0,12,0S0,5.37,0,12S5.37,24,12,24z"/>
<path class="st1" d="M19.67,8.82C19.63,8,19.5,7.44,19.31,6.95c-0.19-0.51-0.5-0.98-0.89-1.37c-0.39-0.39-0.85-0.7-1.37-0.89
	C16.56,4.5,16,4.37,15.18,4.33C14.36,4.29,14.1,4.29,12,4.29c-2.1,0-2.36,0.01-3.18,0.05C8,4.37,7.44,4.5,6.95,4.69
	c-0.51,0.19-0.98,0.5-1.37,0.89c-0.39,0.39-0.7,0.85-0.89,1.37C4.5,7.44,4.37,8,4.33,8.82C4.29,9.64,4.29,9.9,4.29,12
	s0.01,2.36,0.05,3.18C4.37,16,4.5,16.56,4.69,17.05c0.2,0.51,0.46,0.94,0.89,1.37c0.43,0.43,0.86,0.69,1.37,0.89
	C7.44,19.5,8,19.63,8.82,19.67c0.82,0.04,1.09,0.05,3.18,0.05s2.36-0.01,3.18-0.05c0.82-0.04,1.38-0.17,1.87-0.36
	c0.51-0.19,0.98-0.5,1.37-0.89c0.39-0.39,0.7-0.85,0.89-1.37c0.19-0.49,0.32-1.05,0.36-1.87c0.04-0.82,0.05-1.09,0.05-3.18
	C19.71,9.9,19.71,9.64,19.67,8.82L19.67,8.82z M18.29,15.12c-0.03,0.75-0.16,1.16-0.26,1.43c-0.12,0.34-0.32,0.64-0.58,0.89
	c-0.25,0.26-0.55,0.45-0.89,0.58c-0.27,0.11-0.68,0.23-1.43,0.27c-0.81,0.04-1.06,0.05-3.12,0.05s-2.31-0.01-3.12-0.05
	c-0.75-0.03-1.16-0.16-1.43-0.27c-0.34-0.12-0.64-0.32-0.89-0.58C6.3,17.2,6.1,16.89,5.98,16.56c-0.11-0.27-0.23-0.68-0.27-1.43
	C5.67,14.31,5.67,14.06,5.67,12s0.01-2.31,0.05-3.12c0.03-0.75,0.16-1.16,0.27-1.43c0.14-0.36,0.31-0.62,0.58-0.89
	C6.8,6.3,7.11,6.1,7.44,5.98c0.27-0.11,0.68-0.23,1.44-0.27C9.69,5.67,9.94,5.67,12,5.67s2.31,0.01,3.12,0.05
	c0.75,0.03,1.16,0.16,1.43,0.27c0.36,0.14,0.62,0.31,0.89,0.58s0.44,0.53,0.58,0.89c0.11,0.27,0.23,0.68,0.27,1.43
	c0.04,0.82,0.05,1.06,0.05,3.12C18.33,14.06,18.33,14.31,18.29,15.12L18.29,15.12z M12,8.04c-2.19-0.05-4,1.68-4.05,3.87
	c-0.05,2.19,1.68,4,3.87,4.05c0.06,0,0.12,0,0.18,0c2.19-0.05,3.92-1.86,3.87-4.05C15.82,9.79,14.12,8.09,12,8.04z M12,14.58
	c-1.42,0.03-2.6-1.1-2.63-2.53c-0.03-1.42,1.1-2.6,2.53-2.63c0.03,0,0.07,0,0.1,0c1.42,0.03,2.56,1.21,2.53,2.63
	C14.5,13.43,13.38,14.55,12,14.58z M16.11,6.96c-0.51,0-0.92,0.41-0.92,0.93s0.41,0.92,0.93,0.92c0.51,0,0.92-0.41,0.92-0.93
	S16.62,6.96,16.11,6.96L16.11,6.96z"/>
</svg>
